<svg width="20" height="99" viewBox="0 0 20 99" fill="none" xmlns="http://www.w3.org/2000/svg">
<g id="social media icons">
<g id="Linkedin icon">
<path id="Vector" d="M13.6444 3.03467C10.1556 3.03467 7.28857 5.86225 7.28857 9.3795V19.3105C7.28857 19.6898 7.59946 20.0002 7.97942 20.0002H11.5718C11.9518 20.0002 12.2627 19.6898 12.2627 19.3105V9.65536C12.2627 8.89674 12.8844 8.27605 13.6444 8.27605C14.4043 8.27605 15.0261 8.89674 15.0261 9.65536V19.3105C15.0261 19.6898 15.3369 20.0002 15.7169 20.0002H19.3093C19.6893 20.0002 20.0001 19.6898 20.0001 19.3105V9.3795C20.0001 5.89674 17.1677 3.03467 13.6444 3.03467Z" fill="#CFCFCF"/>
<path id="Vector_2" d="M2.48705 0C1.10535 0 0 1.10345 0 2.48276C0 3.86207 1.10535 4.96552 2.48705 4.96552C3.86874 4.96552 4.97409 3.86207 4.97409 2.48276C4.97409 1.10345 3.86874 0 2.48705 0Z" fill="#CFCFCF"/>
<path id="Vector_3" d="M4.28325 6.27588H0.690846C0.310881 6.27588 0 6.58622 0 6.96553V19.3104C0 19.6897 0.310881 20 0.690846 20H4.28325C4.66321 20 4.97409 19.6897 4.97409 19.3104V6.96553C4.97409 6.58622 4.66321 6.27588 4.28325 6.27588Z" fill="#CFCFCF"/>
</g>
<path id="twitter" d="M19.7587 79.3944C19.4253 78.9958 18.8587 78.8961 18.4253 79.1951L16.492 80.524C15.592 79.5605 14.3253 79.029 12.9587 79.029C10.2587 79.029 8.02532 81.2217 8.02532 83.9459C8.02532 84.3446 8.05865 84.71 8.15865 85.0755C5.82532 84.5771 4.42532 82.8828 3.89198 79.8263C3.82532 79.4276 3.52532 79.1286 3.12532 79.029C2.75865 78.9293 2.35865 79.0954 2.12532 79.3944C2.05865 79.4609 -3.44135 87.102 4.52532 93.5804C3.75865 95.2083 1.45865 96.6037 0.558651 97.0688C0.125318 97.2681 -0.0746825 97.7332 0.0253176 98.1984C0.125318 98.6635 0.525318 98.9625 0.991984 98.9625H2.72532C12.8587 98.9625 17.4587 93.9459 17.5587 82.7167L19.6587 80.7233C20.0587 80.3911 20.092 79.7931 19.7587 79.3944Z" fill="#CFCFCF"/>
</g>
</svg>
