<?xml version="1.0" encoding="UTF-8" standalone="no"?>
<svg 
    role="img" 
    xmlns="http://www.w3.org/2000/svg" 
    width="1000mm"
    height="1000mm"
    viewBox="0 0 1000 1000"
    style="max-width:1.6em; height: auto;">
    
    <path 
        id="path" 
        style="opacity:1;vector-effect:none;fill:#505F79;fill-opacity:1;"
        d=" M 342 828C 252 828 163 802 88 754C 175 764 265 739 333 685C 266 685 203 640 181 577C 188 566 232 579 253 568C 178 554 119 482 121 406C 140 412 170 426 196 424C 124 379 100 276 144 204C 227 306 354 371 485 376C 474 330 484 278 513 240C 564 169 672 152 741 204C 774 247 827 205 865 189C 873 206 830 262 799 277C 829 274 859 266 888 254C 886 271 839 317 811 337C 816 452 777 568 705 658C 619 768 480 830 342 828"
        transform="">
    </path>    
</svg>
