<?xml version="1.0" encoding="utf-8"?>
<!-- Generator: Adobe Illustrator 28.0.0, SVG Export Plug-In . SVG Version: 6.00 Build 0)  -->
<svg version="1.1" xmlns="http://www.w3.org/2000/svg" xmlns:xlink="http://www.w3.org/1999/xlink" x="0px" y="0px"
	 viewBox="0 0 1398 722" style="enable-background:new 0 0 1398 722;" xml:space="preserve">
<style type="text/css">
	.st0{fill:#EBEBFF;}
	.st1{fill:#FFFFFF;stroke:#EBEBFF;}
	.st2{display:none;}
	.st3{display:inline;fill:#6070FF;}
</style>
<g id="Layer_1">
	<path class="st0" d="M246.2,705.8c2.3-2.8,4-6,4.8-9.6c0.8-3.5,0.8-7.2-0.1-10.7c-0.9-3.5-2.5-6.8-4.9-9.5
		c-2.4-2.7-5.3-4.9-8.6-6.3c-3.3-1.4-6.9-2-10.6-1.7c-3.6,0.3-7.1,1.4-10.2,3.3c-3.1,1.9-5.7,4.4-7.6,7.5c-1.9,3.1-3.1,6.5-3.4,10.1
		l9.9,0.9c0.2-2,0.8-4,1.9-5.8c1.1-1.7,2.6-3.2,4.3-4.3c1.8-1.1,3.7-1.7,5.8-1.9c2.1-0.2,4.1,0.2,6,1c1.9,0.8,3.6,2,4.9,3.6
		c1.3,1.6,2.3,3.4,2.8,5.4c0.5,2,0.5,4.1,0,6.1c-0.5,2-1.4,3.9-2.7,5.4L246.2,705.8z"/>
	<rect x="1110.1" y="47.9" transform="matrix(0.866 -0.5 0.5 0.866 126.7128 615.6016)" class="st0" width="204" height="47"/>
	
		<rect x="751.4" y="595.5" transform="matrix(0.3962 -0.9182 0.9182 0.3962 -158.4817 1111.4691)" class="st0" width="28.9" height="161.4"/>
	
		<rect x="-9.1" y="57.8" transform="matrix(0.6929 -0.7211 0.7211 0.6929 -34.7572 53.3576)" class="st0" width="108.7" height="19.4"/>
	<circle class="st0" cx="685.5" cy="149.5" r="11.5"/>
	<circle class="st1" cx="1177.5" cy="562.5" r="37"/>
	<circle class="st1" cx="950.5" cy="53.5" r="19"/>
	<circle class="st1" cx="352.5" cy="53.5" r="7"/>
	<circle class="st1" cx="50.5" cy="404.5" r="11"/>
</g>
<g id="Layer_2" class="st2">
	<path class="st3" d="M1383.6,130c-8.6-15.3-20.8-28.4-35.4-38.2c-14.6-9.8-31.3-16-48.8-18.1c-17.5-2.1-35.2-0.1-51.7,5.9
		c-16.5,6-31.4,15.8-43.4,28.7c-12,12.8-20.9,28.3-25.8,45.2c-4.9,16.9-5.8,34.7-2.6,52s10.5,33.6,21.2,47.5
		c10.7,14,24.5,25.2,40.4,32.8l20.9-43.4c-9-4.3-16.9-10.7-23-18.7c-6.1-8-10.2-17.2-12.1-27.1c-1.8-9.8-1.3-20,1.5-29.6
		c2.8-9.6,7.8-18.4,14.7-25.8c6.9-7.3,15.3-12.9,24.7-16.3c9.4-3.4,19.5-4.6,29.4-3.4c9.9,1.2,19.5,4.7,27.8,10.3
		c8.3,5.6,15.2,13,20.2,21.7L1383.6,130z"/>
	<rect x="657.6" y="126.7" transform="matrix(0.9774 -0.2114 0.2114 0.9774 -12.359 147.903)" class="st3" width="56" height="10"/>
	<circle class="st3" cx="828.5" cy="662.5" r="23.5"/>
	<path class="st3" d="M47,73.1c-4.2,9.8-4.3,20.9-0.3,30.8c4,9.9,11.7,17.8,21.5,22c9.8,4.2,20.9,4.3,30.8,0.3
		c9.9-4,17.8-11.7,22-21.5L47,73.1z"/>
	<path class="st3" d="M219.6,665.9c3.2,3.7,7.8,5.9,12.6,6.3c4.9,0.3,9.7-1.3,13.4-4.5c3.7-3.2,5.9-7.8,6.3-12.6
		c0.3-4.9-1.3-9.7-4.5-13.4L219.6,665.9z"/>
</g>
</svg>
